<mxfile host="Electron" modified="2024-05-11T08:38:02.163Z" agent="Mozilla/5.0 (Macintosh; Intel Mac OS X 10_15_7) AppleWebKit/537.36 (KHTML, like Gecko) draw.io/24.2.5 Chrome/120.0.6099.109 Electron/28.1.0 Safari/537.36" etag="UkN6RiSMo_8GmS31CTrX" version="24.2.5" type="device">
  <diagram name="Page-1" id="uj62V_IwbBDW80duW8s5">
    <mxGraphModel dx="705" dy="940" grid="1" gridSize="10" guides="1" tooltips="1" connect="1" arrows="1" fold="1" page="1" pageScale="1" pageWidth="827" pageHeight="1169" math="0" shadow="0">
      <root>
        <mxCell id="0" />
        <mxCell id="1" parent="0" />
        <mxCell id="aEckv1ng2_iU27Msg8Qa-9" value="" style="rounded=0;whiteSpace=wrap;html=1;fillColor=default;dashed=1;" parent="1" vertex="1">
          <mxGeometry x="110" y="310" width="590" height="320" as="geometry" />
        </mxCell>
        <mxCell id="LX2QQ59xsWUWf5GMBKHe-15" value="" style="group" parent="1" vertex="1" connectable="0">
          <mxGeometry x="145" y="333.75" width="520" height="272.5" as="geometry" />
        </mxCell>
        <mxCell id="LX2QQ59xsWUWf5GMBKHe-8" style="edgeStyle=orthogonalEdgeStyle;rounded=0;orthogonalLoop=1;jettySize=auto;html=1;entryX=0.108;entryY=0.99;entryDx=0;entryDy=0;entryPerimeter=0;endArrow=none;endFill=0;startArrow=classic;startFill=1;" parent="LX2QQ59xsWUWf5GMBKHe-15" source="aEckv1ng2_iU27Msg8Qa-2" target="aEckv1ng2_iU27Msg8Qa-7" edge="1">
          <mxGeometry relative="1" as="geometry">
            <Array as="points">
              <mxPoint x="150" y="37.5" />
            </Array>
          </mxGeometry>
        </mxCell>
        <mxCell id="LX2QQ59xsWUWf5GMBKHe-30" style="edgeStyle=orthogonalEdgeStyle;rounded=0;orthogonalLoop=1;jettySize=auto;html=1;exitX=0;exitY=0.75;exitDx=0;exitDy=0;endArrow=none;endFill=0;startArrow=classic;startFill=1;" parent="LX2QQ59xsWUWf5GMBKHe-15" source="aEckv1ng2_iU27Msg8Qa-1" edge="1">
          <mxGeometry relative="1" as="geometry">
            <mxPoint x="-65" y="162.57000000000005" as="targetPoint" />
          </mxGeometry>
        </mxCell>
        <mxCell id="LX2QQ59xsWUWf5GMBKHe-36" value="drq_i" style="edgeLabel;html=1;align=center;verticalAlign=middle;resizable=0;points=[];" parent="LX2QQ59xsWUWf5GMBKHe-30" vertex="1" connectable="0">
          <mxGeometry x="0.7318" relative="1" as="geometry">
            <mxPoint x="-24" as="offset" />
          </mxGeometry>
        </mxCell>
        <mxCell id="LX2QQ59xsWUWf5GMBKHe-31" style="edgeStyle=orthogonalEdgeStyle;rounded=0;orthogonalLoop=1;jettySize=auto;html=1;exitX=0;exitY=0.25;exitDx=0;exitDy=0;endArrow=none;endFill=0;startArrow=classic;startFill=1;" parent="LX2QQ59xsWUWf5GMBKHe-15" source="aEckv1ng2_iU27Msg8Qa-1" edge="1">
          <mxGeometry relative="1" as="geometry">
            <mxPoint x="-65" y="122.57000000000005" as="targetPoint" />
          </mxGeometry>
        </mxCell>
        <mxCell id="LX2QQ59xsWUWf5GMBKHe-35" value="irq_i" style="edgeLabel;html=1;align=center;verticalAlign=middle;resizable=0;points=[];" parent="LX2QQ59xsWUWf5GMBKHe-31" vertex="1" connectable="0">
          <mxGeometry x="0.6316" relative="1" as="geometry">
            <mxPoint x="-26" as="offset" />
          </mxGeometry>
        </mxCell>
        <mxCell id="LX2QQ59xsWUWf5GMBKHe-40" style="edgeStyle=orthogonalEdgeStyle;rounded=0;orthogonalLoop=1;jettySize=auto;html=1;exitX=1;exitY=0.5;exitDx=0;exitDy=0;entryX=0;entryY=0.5;entryDx=0;entryDy=0;" parent="LX2QQ59xsWUWf5GMBKHe-15" source="aEckv1ng2_iU27Msg8Qa-1" target="aEckv1ng2_iU27Msg8Qa-2" edge="1">
          <mxGeometry relative="1" as="geometry" />
        </mxCell>
        <mxCell id="aEckv1ng2_iU27Msg8Qa-1" value="fetch" style="whiteSpace=wrap;html=1;aspect=fixed;fillColor=#fff2cc;strokeColor=#d6b656;" parent="LX2QQ59xsWUWf5GMBKHe-15" vertex="1">
          <mxGeometry y="102.5" width="80" height="80" as="geometry" />
        </mxCell>
        <mxCell id="LX2QQ59xsWUWf5GMBKHe-41" style="edgeStyle=orthogonalEdgeStyle;rounded=0;orthogonalLoop=1;jettySize=auto;html=1;exitX=1;exitY=0.5;exitDx=0;exitDy=0;entryX=0;entryY=0.5;entryDx=0;entryDy=0;" parent="LX2QQ59xsWUWf5GMBKHe-15" source="aEckv1ng2_iU27Msg8Qa-2" target="aEckv1ng2_iU27Msg8Qa-3" edge="1">
          <mxGeometry relative="1" as="geometry" />
        </mxCell>
        <mxCell id="aEckv1ng2_iU27Msg8Qa-2" value="decode" style="whiteSpace=wrap;html=1;aspect=fixed;fillColor=#fff2cc;strokeColor=#d6b656;" parent="LX2QQ59xsWUWf5GMBKHe-15" vertex="1">
          <mxGeometry x="110" y="102.5" width="80" height="80" as="geometry" />
        </mxCell>
        <mxCell id="LX2QQ59xsWUWf5GMBKHe-42" style="edgeStyle=orthogonalEdgeStyle;rounded=0;orthogonalLoop=1;jettySize=auto;html=1;exitX=1;exitY=0.5;exitDx=0;exitDy=0;entryX=0;entryY=0.5;entryDx=0;entryDy=0;" parent="LX2QQ59xsWUWf5GMBKHe-15" source="aEckv1ng2_iU27Msg8Qa-3" target="aEckv1ng2_iU27Msg8Qa-4" edge="1">
          <mxGeometry relative="1" as="geometry" />
        </mxCell>
        <mxCell id="LX2QQ59xsWUWf5GMBKHe-44" style="edgeStyle=orthogonalEdgeStyle;rounded=0;orthogonalLoop=1;jettySize=auto;html=1;exitX=0;exitY=0.75;exitDx=0;exitDy=0;entryX=1;entryY=0.75;entryDx=0;entryDy=0;" parent="LX2QQ59xsWUWf5GMBKHe-15" source="aEckv1ng2_iU27Msg8Qa-3" target="aEckv1ng2_iU27Msg8Qa-1" edge="1">
          <mxGeometry relative="1" as="geometry">
            <Array as="points">
              <mxPoint x="205" y="163" />
              <mxPoint x="205" y="216" />
              <mxPoint x="95" y="216" />
              <mxPoint x="95" y="163" />
            </Array>
          </mxGeometry>
        </mxCell>
        <mxCell id="LX2QQ59xsWUWf5GMBKHe-45" value="Branch" style="edgeLabel;html=1;align=center;verticalAlign=middle;resizable=0;points=[];" parent="LX2QQ59xsWUWf5GMBKHe-44" vertex="1" connectable="0">
          <mxGeometry x="-0.0648" relative="1" as="geometry">
            <mxPoint x="-7" y="-10" as="offset" />
          </mxGeometry>
        </mxCell>
        <mxCell id="aEckv1ng2_iU27Msg8Qa-3" value="execute" style="whiteSpace=wrap;html=1;aspect=fixed;fillColor=#fff2cc;strokeColor=#d6b656;" parent="LX2QQ59xsWUWf5GMBKHe-15" vertex="1">
          <mxGeometry x="220" y="102.5" width="80" height="80" as="geometry" />
        </mxCell>
        <mxCell id="LX2QQ59xsWUWf5GMBKHe-43" style="edgeStyle=orthogonalEdgeStyle;rounded=0;orthogonalLoop=1;jettySize=auto;html=1;exitX=1;exitY=0.5;exitDx=0;exitDy=0;entryX=0;entryY=0.5;entryDx=0;entryDy=0;" parent="LX2QQ59xsWUWf5GMBKHe-15" source="aEckv1ng2_iU27Msg8Qa-4" target="aEckv1ng2_iU27Msg8Qa-5" edge="1">
          <mxGeometry relative="1" as="geometry" />
        </mxCell>
        <mxCell id="aEckv1ng2_iU27Msg8Qa-4" value="loadstore" style="whiteSpace=wrap;html=1;aspect=fixed;fillColor=#fff2cc;strokeColor=#d6b656;" parent="LX2QQ59xsWUWf5GMBKHe-15" vertex="1">
          <mxGeometry x="330" y="102.5" width="80" height="80" as="geometry" />
        </mxCell>
        <mxCell id="aEckv1ng2_iU27Msg8Qa-5" value="writeback" style="whiteSpace=wrap;html=1;aspect=fixed;fillColor=#fff2cc;strokeColor=#d6b656;" parent="LX2QQ59xsWUWf5GMBKHe-15" vertex="1">
          <mxGeometry x="440" y="102.5" width="80" height="80" as="geometry" />
        </mxCell>
        <mxCell id="LX2QQ59xsWUWf5GMBKHe-28" style="edgeStyle=orthogonalEdgeStyle;rounded=0;orthogonalLoop=1;jettySize=auto;html=1;exitX=0;exitY=0.5;exitDx=0;exitDy=0;startArrow=classic;startFill=1;shape=flexArrow;width=4.498269896193772;endSize=2.876136363636363;endWidth=3.58137474407634;startWidth=3.58137474407634;startSize=2.876136363636363;fillColor=default;" parent="LX2QQ59xsWUWf5GMBKHe-15" source="aEckv1ng2_iU27Msg8Qa-8" edge="1">
          <mxGeometry relative="1" as="geometry">
            <mxPoint x="-65" y="255.1810344827586" as="targetPoint" />
            <Array as="points">
              <mxPoint x="-45" y="255" />
            </Array>
          </mxGeometry>
        </mxCell>
        <mxCell id="LX2QQ59xsWUWf5GMBKHe-39" value="wishbone" style="edgeLabel;html=1;align=center;verticalAlign=middle;resizable=0;points=[];" parent="LX2QQ59xsWUWf5GMBKHe-28" vertex="1" connectable="0">
          <mxGeometry x="0.5797" relative="1" as="geometry">
            <mxPoint x="-42" as="offset" />
          </mxGeometry>
        </mxCell>
        <mxCell id="aEckv1ng2_iU27Msg8Qa-8" value="memory" style="rounded=0;whiteSpace=wrap;html=1;fillColor=#f5f5f5;fontColor=#333333;strokeColor=#666666;" parent="LX2QQ59xsWUWf5GMBKHe-15" vertex="1">
          <mxGeometry y="237.5" width="410" height="35" as="geometry" />
        </mxCell>
        <mxCell id="LX2QQ59xsWUWf5GMBKHe-3" style="edgeStyle=orthogonalEdgeStyle;rounded=0;orthogonalLoop=1;jettySize=auto;html=1;exitX=0.358;exitY=1.006;exitDx=0;exitDy=0;entryX=0.25;entryY=0;entryDx=0;entryDy=0;strokeColor=#FF7C7C;startArrow=classic;startFill=1;exitPerimeter=0;" parent="LX2QQ59xsWUWf5GMBKHe-15" source="LX2QQ59xsWUWf5GMBKHe-1" target="aEckv1ng2_iU27Msg8Qa-2" edge="1">
          <mxGeometry relative="1" as="geometry">
            <Array as="points">
              <mxPoint x="30" y="83" />
              <mxPoint x="130" y="83" />
            </Array>
          </mxGeometry>
        </mxCell>
        <mxCell id="LX2QQ59xsWUWf5GMBKHe-4" style="edgeStyle=orthogonalEdgeStyle;rounded=0;orthogonalLoop=1;jettySize=auto;html=1;exitX=0.5;exitY=1;exitDx=0;exitDy=0;entryX=0.25;entryY=0;entryDx=0;entryDy=0;strokeColor=#FF7C7C;startArrow=classic;startFill=1;" parent="LX2QQ59xsWUWf5GMBKHe-15" source="LX2QQ59xsWUWf5GMBKHe-1" target="aEckv1ng2_iU27Msg8Qa-3" edge="1">
          <mxGeometry relative="1" as="geometry">
            <Array as="points">
              <mxPoint x="40" y="73" />
              <mxPoint x="240" y="73" />
            </Array>
          </mxGeometry>
        </mxCell>
        <mxCell id="LX2QQ59xsWUWf5GMBKHe-6" style="edgeStyle=orthogonalEdgeStyle;rounded=0;orthogonalLoop=1;jettySize=auto;html=1;exitX=0.642;exitY=1.008;exitDx=0;exitDy=0;entryX=0.25;entryY=0;entryDx=0;entryDy=0;strokeColor=#FF7C7C;startArrow=classic;startFill=1;endArrow=none;endFill=0;exitPerimeter=0;" parent="LX2QQ59xsWUWf5GMBKHe-15" source="LX2QQ59xsWUWf5GMBKHe-1" target="aEckv1ng2_iU27Msg8Qa-4" edge="1">
          <mxGeometry relative="1" as="geometry">
            <Array as="points">
              <mxPoint x="50" y="63" />
              <mxPoint x="350" y="63" />
            </Array>
          </mxGeometry>
        </mxCell>
        <mxCell id="LX2QQ59xsWUWf5GMBKHe-7" style="edgeStyle=orthogonalEdgeStyle;rounded=0;orthogonalLoop=1;jettySize=auto;html=1;exitX=0.787;exitY=1.006;exitDx=0;exitDy=0;entryX=0.25;entryY=0;entryDx=0;entryDy=0;strokeColor=#FF7C7C;startArrow=classic;startFill=1;endArrow=none;endFill=0;exitPerimeter=0;" parent="LX2QQ59xsWUWf5GMBKHe-15" source="LX2QQ59xsWUWf5GMBKHe-1" target="aEckv1ng2_iU27Msg8Qa-5" edge="1">
          <mxGeometry relative="1" as="geometry">
            <Array as="points">
              <mxPoint x="60" y="53" />
              <mxPoint x="460" y="53" />
            </Array>
          </mxGeometry>
        </mxCell>
        <mxCell id="LX2QQ59xsWUWf5GMBKHe-1" value="hazard" style="rounded=0;whiteSpace=wrap;html=1;fillColor=#ffcccc;strokeColor=#ff7c7c;" parent="LX2QQ59xsWUWf5GMBKHe-15" vertex="1">
          <mxGeometry x="5" width="70" height="40" as="geometry" />
        </mxCell>
        <mxCell id="aEckv1ng2_iU27Msg8Qa-7" value="regs" style="rounded=0;whiteSpace=wrap;html=1;fillColor=#f5f5f5;fontColor=#333333;strokeColor=#666666;" parent="LX2QQ59xsWUWf5GMBKHe-15" vertex="1">
          <mxGeometry x="110" y="2.5" width="410" height="35" as="geometry" />
        </mxCell>
        <mxCell id="LX2QQ59xsWUWf5GMBKHe-11" style="edgeStyle=orthogonalEdgeStyle;rounded=0;orthogonalLoop=1;jettySize=auto;html=1;entryX=0.902;entryY=0.998;entryDx=0;entryDy=0;entryPerimeter=0;" parent="LX2QQ59xsWUWf5GMBKHe-15" source="aEckv1ng2_iU27Msg8Qa-5" target="aEckv1ng2_iU27Msg8Qa-7" edge="1">
          <mxGeometry relative="1" as="geometry">
            <Array as="points" />
          </mxGeometry>
        </mxCell>
        <mxCell id="LX2QQ59xsWUWf5GMBKHe-12" style="edgeStyle=orthogonalEdgeStyle;rounded=0;orthogonalLoop=1;jettySize=auto;html=1;exitX=0.75;exitY=1;exitDx=0;exitDy=0;entryX=0.951;entryY=-0.024;entryDx=0;entryDy=0;entryPerimeter=0;endArrow=none;endFill=0;startArrow=classic;startFill=1;" parent="LX2QQ59xsWUWf5GMBKHe-15" source="aEckv1ng2_iU27Msg8Qa-4" target="aEckv1ng2_iU27Msg8Qa-8" edge="1">
          <mxGeometry relative="1" as="geometry" />
        </mxCell>
        <mxCell id="LX2QQ59xsWUWf5GMBKHe-13" style="edgeStyle=orthogonalEdgeStyle;rounded=0;orthogonalLoop=1;jettySize=auto;html=1;exitX=0.25;exitY=1;exitDx=0;exitDy=0;entryX=0.853;entryY=-0.024;entryDx=0;entryDy=0;entryPerimeter=0;" parent="LX2QQ59xsWUWf5GMBKHe-15" source="aEckv1ng2_iU27Msg8Qa-4" target="aEckv1ng2_iU27Msg8Qa-8" edge="1">
          <mxGeometry relative="1" as="geometry" />
        </mxCell>
        <mxCell id="LX2QQ59xsWUWf5GMBKHe-14" style="edgeStyle=orthogonalEdgeStyle;rounded=0;orthogonalLoop=1;jettySize=auto;html=1;exitX=0.5;exitY=1;exitDx=0;exitDy=0;entryX=0.098;entryY=-0.001;entryDx=0;entryDy=0;entryPerimeter=0;endArrow=none;endFill=0;startArrow=classic;startFill=1;" parent="LX2QQ59xsWUWf5GMBKHe-15" source="aEckv1ng2_iU27Msg8Qa-1" target="aEckv1ng2_iU27Msg8Qa-8" edge="1">
          <mxGeometry relative="1" as="geometry" />
        </mxCell>
        <mxCell id="LX2QQ59xsWUWf5GMBKHe-32" style="edgeStyle=orthogonalEdgeStyle;rounded=0;orthogonalLoop=1;jettySize=auto;html=1;exitX=0;exitY=0.5;exitDx=0;exitDy=0;endArrow=none;endFill=0;startArrow=classic;startFill=1;" parent="1" source="LX2QQ59xsWUWf5GMBKHe-23" edge="1">
          <mxGeometry relative="1" as="geometry">
            <mxPoint x="80" y="364.06666666666666" as="targetPoint" />
          </mxGeometry>
        </mxCell>
        <mxCell id="LX2QQ59xsWUWf5GMBKHe-34" value="clk_i" style="edgeLabel;html=1;align=center;verticalAlign=middle;resizable=0;points=[];" parent="LX2QQ59xsWUWf5GMBKHe-32" vertex="1" connectable="0">
          <mxGeometry x="0.4753" relative="1" as="geometry">
            <mxPoint x="-22" as="offset" />
          </mxGeometry>
        </mxCell>
        <mxCell id="LX2QQ59xsWUWf5GMBKHe-23" value="" style="triangle;whiteSpace=wrap;html=1;fillColor=none;dashed=1;" parent="1" vertex="1">
          <mxGeometry x="110" y="349" width="14" height="30" as="geometry" />
        </mxCell>
        <mxCell id="LX2QQ59xsWUWf5GMBKHe-37" style="edgeStyle=orthogonalEdgeStyle;rounded=0;orthogonalLoop=1;jettySize=auto;html=1;exitX=0;exitY=0.5;exitDx=0;exitDy=0;endArrow=none;endFill=0;startArrow=classic;startFill=1;" parent="1" edge="1">
          <mxGeometry relative="1" as="geometry">
            <mxPoint x="80" y="385.06666666666666" as="targetPoint" />
            <mxPoint x="110" y="385" as="sourcePoint" />
          </mxGeometry>
        </mxCell>
        <mxCell id="LX2QQ59xsWUWf5GMBKHe-38" value="rst_i" style="edgeLabel;html=1;align=center;verticalAlign=middle;resizable=0;points=[];" parent="LX2QQ59xsWUWf5GMBKHe-37" vertex="1" connectable="0">
          <mxGeometry x="0.4753" relative="1" as="geometry">
            <mxPoint x="-22" as="offset" />
          </mxGeometry>
        </mxCell>
      </root>
    </mxGraphModel>
  </diagram>
</mxfile>
